<svg width="35" height="32" viewBox="0 0 35 32" fill="none" xmlns="http://www.w3.org/2000/svg">
<g clip-path="url(#clip0_2_30)">
<path fill-rule="evenodd" clip-rule="evenodd" d="M33.6465 27.7357C33.3128 28.5258 32.5429 29.6383 31.4511 30.4219C30.8208 30.8745 30.0682 31.3072 29.0345 31.5927C27.9325 31.8971 26.5752 32 24.8858 32H9.43955C7.75037 32 6.39307 31.8971 5.291 31.5927C4.25728 31.3072 3.50482 30.8745 2.87433 30.4219C1.78263 29.6382 1.01258 28.5258 0.67892 27.7357C0.00682022 26.1438 0 24.3376 0 23.2V8.79997C0 7.66243 0.00682022 5.85622 0.67892 4.26429C1.01258 3.47418 1.78249 2.36169 2.87433 1.57806C3.50468 1.12546 4.25728 0.692826 5.291 0.407328C6.39293 0.102881 7.75023 0 9.43955 0H24.886C26.5752 0 27.9325 0.102881 29.0346 0.407328C30.0683 0.692826 30.8208 1.12559 31.4512 1.57806C32.5429 2.36182 33.313 3.47418 33.6466 4.26429C34.3187 5.85622 34.3256 7.66243 34.3256 8.79997V23.2C34.3254 24.3375 34.3186 26.1437 33.6465 27.7357Z" fill="url(#paint0_linear_2_30)"/>
<path d="M19.6522 18.3933C19.1371 17.8867 18.2324 17.5619 17.1643 17.5619C16.0963 17.5619 15.1916 17.8867 14.6765 18.3933C14.4078 18.6577 14.2657 18.9287 14.2208 19.3148C14.1341 20.0625 14.1828 20.7062 14.2768 21.7354C14.3663 22.7161 14.5363 24.024 14.758 25.356C14.9159 26.3039 15.0441 26.8155 15.1609 27.1819C15.3502 27.7756 16.0578 28.2949 17.1643 28.2949C18.2708 28.2949 18.9784 27.7755 19.1677 27.1819C19.2844 26.8155 19.4127 26.3039 19.5705 25.356C19.7923 24.024 19.9623 22.7161 20.0518 21.7354C20.1458 20.7061 20.1945 20.0623 20.1077 19.3148C20.063 18.9289 19.9209 18.6577 19.6522 18.3933ZM14.3578 13.8822C14.3578 15.3285 15.6155 16.501 17.167 16.501C18.7185 16.501 19.9762 15.3285 19.9762 13.8822C19.9762 12.4358 18.7185 11.2633 17.167 11.2633C15.6155 11.2633 14.3578 12.4358 14.3578 13.8822ZM17.1321 3.54704C10.5622 3.56447 5.17869 8.53341 5.09738 14.658C5.03136 19.6193 8.42856 23.8632 13.1723 25.4188C13.2874 25.4565 13.4043 25.3674 13.3862 25.2549C13.324 24.8696 13.2653 24.4825 13.2114 24.1019C13.1924 23.9674 13.1004 23.8514 12.9671 23.7971C9.2177 22.27 6.59955 18.7644 6.64157 14.7037C6.69667 9.37477 11.3644 5.03036 17.0807 4.98725C22.9243 4.94325 27.6934 9.36219 27.6934 14.8C27.6934 18.82 25.0867 22.2826 21.3665 23.7975C21.2333 23.8518 21.1419 23.9681 21.1229 24.1026C21.069 24.483 21.0104 24.87 20.9482 25.2549C20.93 25.3674 21.0469 25.4565 21.162 25.4189C25.8604 23.8782 29.2379 19.7003 29.2379 14.8001C29.2376 8.58415 23.8039 3.52924 17.1321 3.54704ZM16.9141 8.70954C20.6385 8.57512 23.7143 11.3607 23.7143 14.8034C23.7143 16.5543 22.9186 18.1351 21.6469 19.2483C21.539 19.3427 21.4809 19.4767 21.4893 19.6144C21.5146 20.0332 21.5054 20.4402 21.4755 20.8998C21.4674 21.0222 21.6148 21.1004 21.7235 21.0314C23.8561 19.6727 25.2589 17.3881 25.2589 14.8034C25.2589 10.5478 21.4566 7.10439 16.8528 7.27073C12.5744 7.42537 9.14185 10.7139 9.08702 14.7053C9.051 17.3303 10.4623 19.6559 12.6224 21.0316C12.7309 21.1007 12.8777 21.0224 12.8697 20.9C12.8397 20.4402 12.8305 20.0332 12.8557 19.6144C12.8641 19.4768 12.8063 19.3428 12.6986 19.2486C11.3872 18.1007 10.5818 16.4558 10.6331 14.6398C10.7234 11.444 13.4872 8.83328 16.9141 8.70954Z" fill="white"/>
</g>
<defs>
<linearGradient id="paint0_linear_2_30" x1="17.1627" y1="0" x2="17.1627" y2="32" gradientUnits="userSpaceOnUse">
<stop stop-color="#F452FF"/>
<stop offset="1" stop-color="#832BC1"/>
</linearGradient>
<clipPath id="clip0_2_30">
<rect width="34.3253" height="32" fill="white"/>
</clipPath>
</defs>
</svg>
