<svg width="231" height="46" viewBox="0 0 231 46" fill="none" xmlns="http://www.w3.org/2000/svg">
<g clip-path="url(#clip0_2_288)">
<path d="M17.964 35.4338C14.4024 35.4338 11.3448 34.7019 8.7912 33.2383C6.2376 31.7422 4.272 29.6768 2.8944 27.0422C1.51679 24.3752 0.827999 21.3016 0.827999 17.8213C0.827999 14.3411 1.51679 11.2675 2.8944 8.60042C4.272 5.93335 6.2376 3.85173 8.7912 2.35557C11.3448 0.859409 14.4024 0.111328 17.964 0.111328C22.1976 0.111328 25.6583 1.13587 28.3464 3.18496C31.068 5.20154 32.7647 8.04748 33.4368 11.7228H26.3304C25.8936 9.8689 24.9528 8.42154 23.508 7.38072C22.0968 6.30739 20.2152 5.77072 17.8632 5.77072C14.604 5.77072 12.0504 6.84406 10.2024 8.99072C8.3544 11.1374 7.4304 14.081 7.4304 17.8213C7.4304 21.5617 8.3544 24.5053 10.2024 26.6519C12.0504 28.7661 14.604 29.8231 17.8632 29.8231C20.2152 29.8231 22.0968 29.3353 23.508 28.3595C24.9528 27.3513 25.8936 25.9689 26.3304 24.2125H33.4368C32.7647 27.7253 31.068 30.4737 28.3464 32.4577C25.6583 34.4417 22.1976 35.4338 17.964 35.4338ZM46.6066 35.4338C44.4561 35.4338 42.6921 35.1085 41.3146 34.458C39.937 33.775 38.9121 32.8805 38.2402 31.7747C37.5682 30.6688 37.2322 29.4492 37.2322 28.1156C37.2322 25.8713 38.1394 24.0499 39.9538 22.6513C41.7682 21.2528 44.4898 20.5534 48.1186 20.5534H54.469V19.968C54.469 18.3092 53.9817 17.0895 53.0074 16.3089C52.033 15.5283 50.8234 15.138 49.3786 15.138C48.0682 15.138 46.9257 15.447 45.9514 16.065C44.977 16.6504 44.3722 17.5286 44.137 18.6995H37.837C38.0049 16.9431 38.6097 15.4144 39.6514 14.1134C40.7265 12.8124 42.1042 11.8204 43.7842 11.1374C45.4641 10.4218 47.3458 10.0641 49.429 10.0641C52.9906 10.0641 55.7961 10.926 57.8458 12.6498C59.8954 14.3737 60.9202 16.8131 60.9202 19.968V34.8483H55.4266L54.8218 30.9453C54.0825 32.2462 53.041 33.3196 51.697 34.1653C50.3866 35.011 48.6897 35.4338 46.6066 35.4338ZM48.0682 30.555C49.9162 30.555 51.3442 29.9695 52.3522 28.7986C53.3938 27.6277 54.049 26.1804 54.3178 24.4565H48.8242C47.1106 24.4565 45.8842 24.7655 45.145 25.3834C44.4057 25.9689 44.0362 26.7007 44.0362 27.5789C44.0362 28.5222 44.4057 29.254 45.145 29.7744C45.8842 30.2947 46.8586 30.555 48.0682 30.555ZM76.4005 35.4338C74.1829 35.4338 72.234 35.0922 70.5541 34.4092C68.874 33.6937 67.5301 32.7179 66.5221 31.4819C65.5141 30.2459 64.9093 28.8149 64.7077 27.1886H71.2093C71.4109 28.1319 71.9484 28.945 72.8221 29.628C73.7293 30.2785 74.8885 30.6038 76.2997 30.6038C77.7109 30.6038 78.7356 30.3273 79.3741 29.7744C80.046 29.2214 80.3821 28.5871 80.3821 27.8716C80.3821 26.8308 79.9116 26.1316 78.9709 25.7738C78.03 25.3834 76.7196 25.0095 75.0397 24.6516C73.9644 24.424 72.8725 24.1474 71.7637 23.8222C70.6549 23.497 69.63 23.0904 68.6893 22.6025C67.7821 22.0822 67.0428 21.4316 66.4717 20.651C65.9004 19.8379 65.6149 18.8459 65.6149 17.675C65.6149 15.5283 66.4884 13.7231 68.2357 12.2595C70.0164 10.7959 72.5028 10.0641 75.6949 10.0641C78.6516 10.0641 81.0036 10.7308 82.7509 12.0644C84.5316 13.3979 85.59 15.2356 85.9261 17.5774H79.8277C79.458 15.7885 78.0637 14.8941 75.6445 14.8941C74.4349 14.8941 73.494 15.1217 72.8221 15.5771C72.1836 16.0325 71.8645 16.6016 71.8645 17.2847C71.8645 18.0002 72.3516 18.5695 73.3261 18.9922C74.3004 19.415 75.5941 19.8053 77.2069 20.1631C78.954 20.5534 80.55 20.9925 81.9949 21.4804C83.4732 21.9358 84.6492 22.635 85.5229 23.5783C86.3964 24.489 86.8333 25.8062 86.8333 27.5301C86.8668 29.0262 86.4636 30.3761 85.6237 31.5795C84.7836 32.7829 83.574 33.7262 81.9949 34.4092C80.4156 35.0922 78.5508 35.4338 76.4005 35.4338ZM101.891 34.8483C99.2703 34.8483 97.1702 34.2304 95.5911 32.9944C94.0118 31.7584 93.2223 29.5629 93.2223 26.408V15.8698H88.9383V10.6495H93.2223L93.9783 4.16072H99.6735V10.6495H106.427V15.8698H99.6735V26.4568C99.6735 27.6277 99.9255 28.4408 100.429 28.8962C100.967 29.319 101.874 29.5304 103.151 29.5304H106.276V34.8483H101.891ZM119.576 35.4338C117.426 35.4338 115.662 35.1085 114.284 34.458C112.907 33.775 111.882 32.8805 111.21 31.7747C110.538 30.6688 110.202 29.4492 110.202 28.1156C110.202 25.8713 111.109 24.0499 112.923 22.6513C114.738 21.2528 117.459 20.5534 121.088 20.5534H127.439V19.968C127.439 18.3092 126.952 17.0895 125.977 16.3089C125.003 15.5283 123.793 15.138 122.348 15.138C121.038 15.138 119.896 15.447 118.921 16.065C117.947 16.6504 117.342 17.5286 117.107 18.6995H110.807C110.975 16.9431 111.58 15.4144 112.621 14.1134C113.696 12.8124 115.074 11.8204 116.754 11.1374C118.434 10.4218 120.315 10.0641 122.399 10.0641C125.96 10.0641 128.766 10.926 130.816 12.6498C132.865 14.3737 133.89 16.8131 133.89 19.968V34.8483H128.396L127.792 30.9453C127.052 32.2462 126.011 33.3196 124.667 34.1653C123.356 35.011 121.66 35.4338 119.576 35.4338ZM121.038 30.555C122.886 30.555 124.314 29.9695 125.322 28.7986C126.363 27.6277 127.019 26.1804 127.287 24.4565H121.794C120.08 24.4565 118.854 24.7655 118.115 25.3834C117.376 25.9689 117.006 26.7007 117.006 27.5789C117.006 28.5222 117.376 29.254 118.115 29.7744C118.854 30.2947 119.828 30.555 121.038 30.555ZM143.681 34.8483L136.373 10.6495H142.774L147.108 28.0668L152.148 10.6495H159.304L164.344 28.0668L168.729 10.6495H175.13L167.772 34.8483H161.068L155.726 16.748L150.384 34.8483H143.681ZM185.531 35.4338C183.381 35.4338 181.617 35.1085 180.239 34.458C178.862 33.775 177.837 32.8805 177.165 31.7747C176.494 30.6688 176.157 29.4492 176.157 28.1156C176.157 25.8713 177.064 24.0499 178.878 22.6513C180.693 21.2528 183.414 20.5534 187.043 20.5534H193.393V19.968C193.393 18.3092 192.907 17.0895 191.932 16.3089C190.958 15.5283 189.749 15.138 188.303 15.138C186.993 15.138 185.851 15.447 184.876 16.065C183.902 16.6504 183.298 17.5286 183.061 18.6995H176.761C176.93 16.9431 177.535 15.4144 178.576 14.1134C179.652 12.8124 181.03 11.8204 182.709 11.1374C184.389 10.4218 186.271 10.0641 188.353 10.0641C191.916 10.0641 194.721 10.926 196.77 12.6498C198.821 14.3737 199.845 16.8131 199.845 19.968V34.8483H194.351L193.746 30.9453C193.008 32.2462 191.966 33.3196 190.621 34.1653C189.311 35.011 187.615 35.4338 185.531 35.4338ZM186.993 30.555C188.842 30.555 190.269 29.9695 191.277 28.7986C192.319 27.6277 192.974 26.1804 193.242 24.4565H187.749C186.035 24.4565 184.81 24.7655 184.069 25.3834C183.331 25.9689 182.961 26.7007 182.961 27.5789C182.961 28.5222 183.331 29.254 184.069 29.7744C184.81 30.2947 185.783 30.555 186.993 30.555ZM207.281 45.5816L213.077 33.2383H211.565L201.838 10.6495H208.843L215.849 27.6765L223.157 10.6495H230.011L214.135 45.5816H207.281Z" fill="white"/>
</g>
<defs>
<clipPath id="clip0_2_288">
<rect width="230.4" height="46" fill="white"/>
</clipPath>
</defs>
</svg>
