<svg width="35" height="32" viewBox="0 0 35 32" fill="none" xmlns="http://www.w3.org/2000/svg">
<g clip-path="url(#clip0_2_65)">
<path d="M17.1621 0.0527344C7.71266 0.0527344 0.052002 7.19426 0.052002 16.0036C0.052002 24.8133 7.71266 31.9543 17.1621 31.9543C26.6126 31.9543 34.2724 24.8133 34.2724 16.0036C34.2724 7.19483 26.6126 0.0534963 17.1619 0.0534963L17.1621 0.0527344ZM25.0087 23.0584C24.7022 23.527 24.0444 23.6756 23.5417 23.388C19.5245 21.1004 14.4672 20.5823 8.51134 21.8508C7.93742 21.9727 7.36532 21.6375 7.23456 21.1023C7.10318 20.567 7.46136 20.0337 8.03671 19.9118C14.5544 18.523 20.1451 19.1213 24.6552 21.6908C25.1579 21.9784 25.3173 22.5899 25.0087 23.0584ZM27.1029 18.7146C26.7168 19.3004 25.8955 19.4851 25.2682 19.1251C20.669 16.4891 13.6583 15.7259 8.21835 17.2653C7.51285 17.464 6.7677 17.0933 6.55357 16.4367C6.34109 15.779 6.73889 15.0857 7.44318 14.8857C13.6571 13.128 21.3821 13.9794 26.6637 17.0051C27.291 17.3651 27.4891 18.1308 27.1029 18.7148V18.7146ZM27.2827 14.192C21.7683 11.1384 12.67 10.8577 7.40497 12.3474C6.5595 12.5864 5.66541 12.1415 5.4092 11.3533C5.15298 10.5647 5.62986 9.73178 6.47593 9.49216C12.5199 7.78169 22.5671 8.11216 28.9161 11.6259C29.6782 12.0466 29.9275 12.9623 29.4759 13.6703C29.0265 14.3792 28.0416 14.6129 27.2836 14.192H27.2827Z" fill="#1ED760"/>
</g>
<defs>
<clipPath id="clip0_2_65">
<rect width="34.3253" height="32" fill="white"/>
</clipPath>
</defs>
</svg>
