<svg width="35" height="32" viewBox="0 0 35 32" fill="none" xmlns="http://www.w3.org/2000/svg">
<g clip-path="url(#clip0_2_33)">
<path d="M33.9598 16C33.9598 24.8889 26.3089 32 17.0471 32C7.78544 32 0.000244141 24.8889 0.000244141 16C0.000244141 7.11112 7.65121 0 16.9129 0C26.1746 0 33.9598 7.11112 33.9598 16Z" fill="url(#paint0_linear_2_33)"/>
<path d="M5.0094 17.069C5.01596 17.0161 5.05619 16.9789 5.10689 16.9789C5.15575 16.9789 5.19623 17.0161 5.20381 17.0687L5.41441 18.3457L5.20381 19.601C5.19598 19.6536 5.15599 19.6902 5.10689 19.6902C5.05616 19.6902 5.01596 19.6533 5.0094 19.6005L4.83173 18.3457L5.0094 17.069Z" fill="white"/>
<path d="M6.00523 16.1888C6.05644 16.1888 6.09799 16.2267 6.10635 16.2815L6.37781 18.3458L6.10608 20.3649C6.09774 20.4196 6.05617 20.4576 6.00523 20.4576C5.95351 20.4576 5.91091 20.4185 5.90411 20.3644L5.66528 18.3458L5.90411 16.2815C5.91116 16.2279 5.95376 16.1888 6.00523 16.1888Z" fill="white"/>
<path d="M9.68648 14.5498C9.69117 14.4534 9.77225 14.3774 9.87024 14.3774C9.96765 14.3774 10.0484 14.4534 10.0542 14.5498L10.2692 18.3476L10.0542 20.8022V20.8015C10.0484 20.8977 9.96765 20.9736 9.87024 20.9736C9.77225 20.9736 9.69144 20.8979 9.68648 20.802L9.49634 18.3476L9.68648 14.5498Z" fill="white"/>
<path d="M7.77921 15.8302C7.78523 15.7543 7.84663 15.6975 7.92188 15.6975C7.99635 15.6975 8.05774 15.7543 8.0643 15.8297L8.30781 18.3466L8.0643 20.7812C8.05774 20.8566 7.99635 20.9135 7.92188 20.9135C7.84661 20.9135 7.78494 20.8566 7.77921 20.7812L7.56494 18.3466L7.77921 15.8302Z" fill="white"/>
<path d="M12.0744 20.7619C12.0695 20.8806 11.9707 20.9733 11.8493 20.9733C11.7269 20.9733 11.6279 20.8803 11.624 20.7627L11.4586 18.3485L11.624 13.2928C11.628 13.1741 11.727 13.0812 11.8495 13.0812C11.971 13.0812 12.0698 13.1739 12.0748 13.2925L12.2611 18.3488L12.0744 20.7619Z" fill="white"/>
<path d="M16.2104 20.6944C16.2073 20.8545 16.0694 20.9848 15.9021 20.9848C15.7348 20.9848 15.5964 20.8545 15.5938 20.6958C15.5938 20.6958 15.4775 18.3522 15.4775 18.3485L15.5938 12.511C15.5963 12.3506 15.7346 12.2203 15.9021 12.2203C16.0694 12.2203 16.2075 12.3509 16.2104 12.5108L16.3405 18.3504L16.2104 20.6944Z" fill="white"/>
<path d="M14.1272 20.724C14.1232 20.8649 14.0059 20.9754 13.8603 20.9754C13.7138 20.9754 13.5965 20.8649 13.5933 20.7255L13.4523 18.3495L13.5931 13.2563C13.5962 13.1154 13.7136 13.0051 13.8602 13.0051C14.0057 13.0051 14.1229 13.1154 14.1269 13.2563L14.2855 18.3492L14.1272 20.7257V20.724Z" fill="white"/>
<path d="M9.05547 20.8012C9.04891 20.8875 8.9789 20.953 8.89236 20.953C8.80462 20.953 8.73489 20.8875 8.72907 20.8009L8.5271 18.3463L8.72907 16.0121C8.73461 15.9253 8.80462 15.8597 8.89236 15.8597C8.97917 15.8597 9.04919 15.9248 9.05547 16.011L9.28485 18.3463L9.05547 20.8012Z" fill="white"/>
<path d="M7.08123 20.7063C7.07392 20.7716 7.0227 20.8188 6.95948 20.8188C6.89519 20.8188 6.84397 20.7713 6.83769 20.7059L6.6109 18.3461L6.83769 15.8969C6.84423 15.8317 6.89542 15.7842 6.95946 15.7842C7.02269 15.7842 7.07389 15.8315 7.08148 15.8969L7.33886 18.3461L7.08123 20.7063Z" fill="white"/>
<path d="M14.589 13.4426C14.5922 13.2903 14.7189 13.1714 14.877 13.1714C15.0348 13.1714 15.1607 13.2903 15.1643 13.4421L15.3086 18.3499L15.1643 20.7111V20.7091C15.1607 20.8613 15.0348 20.98 14.877 20.98C14.7187 20.98 14.5922 20.8611 14.589 20.7108L14.4606 18.3497L14.589 13.4426Z" fill="white"/>
<path d="M11.0608 20.7863C11.0555 20.8938 10.9654 20.9782 10.8562 20.9782C10.746 20.9782 10.656 20.8938 10.6516 20.7873L10.4737 18.3483L10.6513 13.6817C10.6561 13.5742 10.746 13.4899 10.8562 13.4899C10.9654 13.4899 11.0553 13.5739 11.0608 13.6817L11.2615 18.3483L11.0608 20.7863Z" fill="white"/>
<path d="M13.097 20.7478V20.7475C13.0923 20.8764 12.9847 20.9777 12.8512 20.9777C12.7172 20.9777 12.6089 20.876 12.6053 20.7476L12.4519 18.3485L12.6051 13.1221C12.6086 12.9921 12.7169 12.8905 12.8512 12.8905C12.9847 12.8905 13.0928 12.9923 13.097 13.1221L13.2695 18.3488L13.097 20.7465V20.7475C13.097 20.7472 13.097 20.747 13.097 20.7468V20.7478Z" fill="white"/>
<path d="M24.984 15.5558C25.3399 15.4147 25.7306 15.3364 26.14 15.3364C27.7903 15.3364 29.1281 16.6024 29.1281 18.164C29.1281 19.7255 27.7901 20.9914 26.1398 20.9914C26.0864 20.9914 17.8635 20.9875 17.8559 20.9867C17.6774 20.9696 17.5356 20.8255 17.5333 20.6525V11.6794C17.5354 11.5145 17.5955 11.4295 17.821 11.3469C18.4013 11.1346 19.0585 11.009 19.7325 11.009C22.4877 11.009 24.7462 13.0078 24.984 15.5558Z" fill="white"/>
<path d="M16.5927 11.982C16.5954 11.8108 16.7428 11.6714 16.9222 11.6714C17.1013 11.6714 17.2485 11.8108 17.2512 11.9816L17.3978 18.351L17.2512 20.6628V20.66C17.2485 20.8314 17.1013 20.9705 16.9222 20.9705C16.7428 20.9705 16.5954 20.8314 16.593 20.6625L16.4579 18.351L16.5927 11.982Z" fill="white"/>
</g>
<defs>
<linearGradient id="paint0_linear_2_33" x1="16.98" y1="0" x2="16.98" y2="32" gradientUnits="userSpaceOnUse">
<stop stop-color="#FF7602"/>
<stop offset="1" stop-color="#FF3502"/>
</linearGradient>
<clipPath id="clip0_2_33">
<rect width="34.3253" height="32" fill="white"/>
</clipPath>
</defs>
</svg>
