<svg width="35" height="32" viewBox="0 0 35 32" fill="none" xmlns="http://www.w3.org/2000/svg">
<path d="M17.0956 30C25.4264 30 32.1799 23.704 32.1799 15.9375C32.1799 8.171 25.4264 1.875 17.0956 1.875C8.76472 1.875 2.01123 8.171 2.01123 15.9375C2.01123 23.704 8.76472 30 17.0956 30Z" fill="white"/>
<path fill-rule="evenodd" clip-rule="evenodd" d="M0.710205 15.9375C0.710205 7.50114 8.04619 0.662109 17.0956 0.662109C26.145 0.662109 33.4809 7.50114 33.4809 15.9375C33.4809 24.3739 26.145 31.2129 17.0956 31.2129C8.04619 31.2129 0.710205 24.3739 0.710205 15.9375ZM17.0956 3.08789C9.48326 3.08789 3.31225 8.84086 3.31225 15.9375C3.31225 23.0341 9.48326 28.7871 17.0956 28.7871C24.7079 28.7871 30.8789 23.0341 30.8789 15.9375C30.8789 8.84086 24.7079 3.08789 17.0956 3.08789Z" fill="#363F46"/>
<path d="M8.90638 9.99902C8.90638 9.99902 6.82043 12.1928 6.82043 16.0258C6.82043 19.8588 8.90638 21.9642 8.90638 21.9642" fill="white"/>
<path fill-rule="evenodd" clip-rule="evenodd" d="M9.8851 10.7982C9.8851 10.7982 9.8851 10.7982 9.8851 10.7982C9.88427 10.7991 9.88266 10.8008 9.88031 10.8034C9.87307 10.8115 9.85884 10.8276 9.83859 10.8515C9.79806 10.8995 9.73364 10.9787 9.65304 11.0882C9.49162 11.3074 9.26695 11.6455 9.03945 12.0938C8.58509 12.9891 8.12146 14.3191 8.12146 16.0258C8.12146 17.7315 8.58452 19.0364 9.0347 19.9044C9.26035 20.3395 9.48285 20.6648 9.64197 20.8741C9.72143 20.9786 9.7847 21.0538 9.82409 21.0987C9.84377 21.1211 9.85744 21.136 9.86411 21.1431C9.86595 21.1451 9.86726 21.1465 9.86801 21.1473C10.3494 21.6396 10.3148 22.4025 9.78913 22.8552C9.2613 23.3097 8.43818 23.2792 7.95065 22.7872L8.90638 21.9642C7.95065 22.7872 7.95025 22.7868 7.94985 22.7864L7.94714 22.7836L7.94286 22.7792L7.93205 22.7681C7.92387 22.7596 7.91373 22.7489 7.90179 22.7362C7.87791 22.7106 7.84676 22.6765 7.8094 22.6338C7.73472 22.5487 7.63503 22.4294 7.51893 22.2766C7.28694 21.9714 6.98795 21.5308 6.69211 20.9604C6.09932 19.8174 5.51941 18.1531 5.51941 16.0258C5.51941 13.8996 6.09875 12.2162 6.68736 11.0563C6.98135 10.477 7.27816 10.0272 7.50786 9.71524C7.62282 9.55912 7.72136 9.43704 7.7949 9.35004C7.83169 9.30653 7.86228 9.27173 7.8856 9.24577C7.89726 9.23279 7.90711 9.22202 7.91502 9.21347L7.92541 9.2023L7.92949 9.19798L7.93124 9.19612L7.93204 9.19528C7.93242 9.19488 7.93279 9.19448 8.90638 9.99904L7.93279 9.19448C8.40943 8.69321 9.2317 8.64706 9.76939 9.09141C10.3051 9.53414 10.3562 10.2968 9.8851 10.7982Z" fill="#FC7E0F"/>
<path d="M25.525 9.99902C25.525 9.99902 27.6109 12.1928 27.6109 16.0258C27.6109 19.8588 25.525 21.9642 25.525 21.9642" fill="white"/>
<path fill-rule="evenodd" clip-rule="evenodd" d="M24.662 9.0914C25.1997 8.64706 26.022 8.69322 26.4986 9.19449L25.525 9.99904C26.4986 9.19449 26.499 9.19488 26.4994 9.19529L26.5002 9.19613L26.5019 9.19798L26.506 9.20231L26.5164 9.21348C26.5243 9.22203 26.5342 9.2328 26.5458 9.24578C26.5691 9.27173 26.5997 9.30654 26.6365 9.35005C26.7101 9.43705 26.8086 9.55913 26.9236 9.71525C27.1532 10.0272 27.4501 10.4771 27.744 11.0563C28.3326 12.2162 28.912 13.8996 28.912 16.0258C28.912 18.1531 28.3321 19.8174 27.7393 20.9604C27.4435 21.5308 27.1445 21.9714 26.9125 22.2766C26.7964 22.4294 26.6967 22.5487 26.622 22.6338C26.5847 22.6764 26.5535 22.7106 26.5296 22.7361C26.5177 22.7489 26.5076 22.7596 26.4994 22.7681L26.4886 22.7792L26.4843 22.7836L26.4824 22.7855L26.4816 22.7863C26.4812 22.7868 26.4808 22.7872 25.525 21.9642L26.4808 22.7872C25.9932 23.2792 25.1701 23.3097 24.6423 22.8552C24.1166 22.4026 24.0821 21.6396 24.5634 21.1473C24.5637 21.147 24.5641 21.1466 24.5645 21.1461C24.5652 21.1453 24.5662 21.1443 24.5673 21.1431C24.574 21.136 24.5876 21.1211 24.6073 21.0987C24.6467 21.0538 24.71 20.9786 24.7894 20.8741C24.9486 20.6648 25.171 20.3395 25.3967 19.9044C25.8469 19.0364 26.3099 17.7315 26.3099 16.0258C26.3099 14.3191 25.8463 12.9891 25.3919 12.0938C25.1644 11.6455 24.9398 11.3074 24.7784 11.0882C24.6978 10.9787 24.6333 10.8995 24.5928 10.8515C24.5726 10.8276 24.5583 10.8115 24.5511 10.8034C24.5487 10.8008 24.5471 10.7991 24.5463 10.7981M24.662 9.0914C24.1263 9.53413 24.0752 10.2968 24.5463 10.7981L24.662 9.0914Z" fill="#FC7E0F"/>
<path d="M22.198 12.5625C22.198 12.5625 23.6031 14.1938 23.5685 16.0179C23.5254 18.2116 22.2153 19.417 22.2153 19.417" fill="white"/>
<path fill-rule="evenodd" clip-rule="evenodd" d="M21.3835 11.6167C21.9437 11.1973 22.7626 11.2808 23.2125 11.8031L22.198 12.5625C23.2125 11.8031 23.2123 11.8028 23.2125 11.8031L23.2145 11.8055L23.2171 11.8084L23.2237 11.8163L23.2429 11.8392C23.2582 11.8576 23.2785 11.8824 23.303 11.9132C23.352 11.9748 23.4183 12.0606 23.4959 12.1679C23.6504 12.3816 23.8536 12.6856 24.0559 13.0562C24.4501 13.7787 24.892 14.8477 24.8694 16.0393C24.8434 17.3634 24.4335 18.4024 24.0209 19.1158C23.8151 19.4715 23.6081 19.7477 23.4457 19.9414C23.3644 20.0384 23.2937 20.1153 23.2393 20.1717C23.2121 20.1999 23.1888 20.2231 23.1703 20.2412L23.146 20.2646L23.1366 20.2734L23.1327 20.277L23.1309 20.2787L23.13 20.2795C23.1296 20.2799 23.1292 20.2803 22.2153 19.417L23.1292 20.2803C22.6178 20.7508 21.794 20.7457 21.2893 20.269C20.788 19.7954 20.79 19.0347 21.291 18.5634C21.2931 18.5613 21.2975 18.5569 21.3041 18.5501C21.3215 18.5321 21.3535 18.4977 21.3957 18.4474C21.4803 18.3464 21.6035 18.1842 21.7306 17.9644C21.9838 17.5266 22.2506 16.8655 22.2678 15.9961C22.2796 15.3637 22.0363 14.7052 21.7367 14.1561C21.592 13.8909 21.4461 13.673 21.3382 13.5238C21.2846 13.4497 21.2414 13.3939 21.2137 13.3591C21.1998 13.3417 21.19 13.3297 21.1847 13.3233L21.1806 13.3184C20.7341 12.7962 20.8244 12.0352 21.3835 11.6167ZM21.3 18.555C21.3 18.5551 21.3001 18.5549 21.3 18.555V18.555Z" fill="#FC7E0F"/>
<path d="M12.1649 12.5625C12.1649 12.5625 10.7598 14.1938 10.7943 16.0179C10.8374 18.2116 12.1476 19.417 12.1476 19.417" fill="white"/>
<path fill-rule="evenodd" clip-rule="evenodd" d="M13.1798 13.3214L13.1809 13.3201L13.1819 13.3189C13.182 13.3188 13.1824 13.3183 13.1819 13.3189C13.1812 13.3197 13.1805 13.3206 13.1798 13.3214ZM12.0951 15.9961C12.0833 15.3637 12.3266 14.7052 12.6263 14.1561C12.771 13.8909 12.9168 13.673 13.0247 13.5238C13.0783 13.4497 13.1215 13.3939 13.1492 13.3591C13.1631 13.3417 13.1729 13.3297 13.1782 13.3233L13.1819 13.3189C13.6284 12.7967 13.5385 12.0352 12.9795 11.6167C12.4192 11.1973 11.6003 11.2808 11.1504 11.8031L12.1467 12.5489C11.1504 11.8031 11.1506 11.8028 11.1504 11.8031L11.1484 11.8055L11.1458 11.8084L11.1392 11.8163L11.12 11.8392C11.1047 11.8576 11.0844 11.8824 11.0599 11.9132C11.0109 11.9748 10.9446 12.0606 10.867 12.1679C10.7125 12.3816 10.5093 12.6856 10.307 13.0562C9.91283 13.7787 9.47094 14.8477 9.49351 16.0393C9.51953 17.3634 9.92939 18.4024 10.342 19.1158C10.5478 19.4715 10.7548 19.7477 10.9172 19.9414C10.9985 20.0384 11.0692 20.1153 11.1236 20.1717C11.1508 20.1999 11.1741 20.2231 11.1926 20.2412L11.2169 20.2646L11.2263 20.2734L11.2302 20.277L11.232 20.2787L11.2329 20.2795C11.2333 20.2799 11.2337 20.2803 12.1476 19.417L11.2337 20.2803C11.7451 20.7508 12.5689 20.7457 13.0736 20.269C13.5749 19.7954 13.5729 19.0347 13.0719 18.5634C13.0698 18.5613 13.0654 18.5569 13.0588 18.5501C13.0414 18.5321 13.0094 18.4977 12.9672 18.4474C12.8826 18.3464 12.7594 18.1842 12.6323 17.9644C12.3791 17.5266 12.1123 16.8655 12.0951 15.9961Z" fill="#FC7E0F"/>
<path d="M17.0937 18.1206C18.3868 18.1206 19.4351 17.1433 19.4351 15.9377C19.4351 14.7322 18.3868 13.7549 17.0937 13.7549C15.8005 13.7549 14.7522 14.7322 14.7522 15.9377C14.7522 17.1433 15.8005 18.1206 17.0937 18.1206Z" fill="#363F46"/>
<path d="M17.4895 17.9767L15.8285 17.5605L13.0626 27.1924L14.7236 27.6085L17.4895 17.9767Z" fill="#363F46"/>
<path d="M16.8463 17.964L18.4999 17.5547L21.2512 27.1934L19.5975 27.6027L16.8463 17.964Z" fill="#363F46"/>
<path d="M15.3096 23.1618L15.9242 22.5752L20.1827 26.4429L19.568 27.0296L15.3096 23.1618Z" fill="#363F46"/>
<path d="M18.9165 23.1825L18.3603 22.6572L14.1384 26.5659L14.6945 27.0912L18.9165 23.1825Z" fill="#363F46"/>
</svg>
