<svg width="35" height="32" viewBox="0 0 35 32" fill="none" xmlns="http://www.w3.org/2000/svg">
<path d="M16.7971 30C25.0909 30 31.8144 23.732 31.8144 16C31.8144 8.26801 25.0909 2 16.7971 2C8.50326 2 1.77979 8.26801 1.77979 16C1.77979 23.732 8.50326 30 16.7971 30Z" fill="white"/>
<path d="M17.3625 0C8.16366 0 0.707092 7.16334 0.707092 16C0.707092 24.8366 8.16366 32 17.3625 32C26.5614 32 34.018 24.8366 34.018 16C34.018 7.16334 26.5614 0 17.3625 0ZM22.522 16.148C22.522 13.4927 20.2811 11.3397 17.5165 11.3397C14.7525 11.3397 12.5116 13.4923 12.5116 16.148C12.5116 18.8033 14.7525 20.9559 17.5165 20.9559V23.7036C13.173 23.7036 9.65131 20.321 9.65131 16.148C9.65131 11.9751 13.1725 8.5924 17.5165 8.5924C21.8606 8.5924 25.3819 11.9751 25.3819 16.148H22.522ZM27.3481 16.148C27.3481 10.9321 22.9467 6.7036 17.5165 6.7036C12.087 6.7036 7.68547 10.9321 7.68547 16.148C7.68547 21.3638 12.087 25.592 17.5165 25.592V28.7404C10.2772 28.7404 4.40803 23.1024 4.40803 16.148C4.40803 9.19327 10.2772 3.5556 17.5165 3.5556C24.7564 3.5556 30.6252 9.19327 30.6252 16.148H27.3481Z" fill="#F43E37"/>
</svg>
